Coordinates
version=1
nRows=7
nColumns=40
inDegrees=yes

Units are S.I. units (second, meters, Newtons, ...)
Angles are in degrees.

endheader
time	pelvis_tilt	pelvis_list	pelvis_rotation	pelvis_tx	pelvis_ty	pelvis_tz	hip_flexion_r	hip_adduction_r	hip_rotation_r	knee_angle_r	knee_angle_r_beta	ankle_angle_r	subtalar_angle_r	mtp_angle_r	hip_flexion_l	hip_adduction_l	hip_rotation_l	knee_angle_l	knee_angle_l_beta	ankle_angle_l	subtalar_angle_l	mtp_angle_l	lumbar_extension	lumbar_bending	lumbar_rotation	arm_flex_r	arm_add_r	arm_rot_r	elbow_flex_r	pro_sup_r	wrist_flex_r	wrist_dev_r	arm_flex_l	arm_add_l	arm_rot_l	elbow_flex_l	pro_sup_l	wrist_flex_l	wrist_dev_l
     34.07750000	     -5.37512070	     -4.30268105	      5.87107629	      1.06084862	      0.92481427	      0.49939219	     -0.10188386	     -1.31912852	    -14.41339776	     19.22800574	     19.22800574	     16.27697430	      2.55010233	     -4.97274942	     24.95893542	     -7.02607825	      0.21858550	     23.55327993	     23.55327993	      6.51945967	    -10.86574980	      2.09858915	     -7.22400438	      3.82890742	      3.96006930	     45.61879340	    -16.44566717	     -4.78064817	     72.17560544	     45.49840201	      0.00000000	      0.00000000	     -8.38320689	    -11.68023396	     20.21303457	     32.27187710	     45.23642795	      0.00000000	      0.00000000
     34.09828571	     -5.51750340	     -4.31662398	      5.36266285	      1.06191274	      0.92544716	      0.49399176	     -0.38589718	     -1.80887314	    -14.54304931	     18.98914624	     18.98914624	     15.80886996	      3.60320175	     -5.27502820	     24.63146922	     -6.81269120	     -0.13458011	     23.62764166	     23.62764166	      6.95233191	    -11.18996379	      2.21822198	     -7.12709669	      3.82962840	      4.24619802	     43.66436100	    -16.65977847	     -5.09163922	     69.97794674	     45.57215723	      0.00000000	      0.00000000	     -6.59375759	    -11.84577799	     19.61064053	     32.13198035	     45.34496800	      0.00000000	      0.00000000
     34.11907143	     -5.58760239	     -4.34096855	      4.88059180	      1.06280729	      0.92594337	      0.48851547	     -0.63196707	     -2.32837239	    -14.71683453	     18.94148790	     18.94148790	     15.24991759	      4.65261446	     -6.21838080	     24.33103943	     -6.58924448	     -0.39417550	     23.87316340	     23.87316340	      7.57478796	    -11.52878095	      2.71657742	     -7.13536505	      3.93098002	      4.10081456	     42.05105965	    -16.04388652	     -5.66566199	     67.37474831	     45.66408465	      0.00000000	      0.00000000	     -4.43126680	    -11.63955367	     18.51662644	     30.89853549	     45.52517131	      0.00000000	      0.00000000
     34.13985714	     -5.70676424	     -4.42318944	      4.42136951	      1.06362831	      0.92630725	      0.48309427	     -0.79165516	     -2.71007054	    -14.55792238	     18.89658098	     18.89658098	     14.78811630	      5.09990892	     -6.45210106	     24.10000328	     -6.43283199	     -0.69895619	     24.09067905	     24.09067905	      8.02531403	    -11.81936609	      2.82430990	     -7.12164029	      4.08349357	      4.02305444	     39.77239393	    -15.89344431	     -5.60868814	     65.68510245	     45.70432231	      0.00000000	      0.00000000	     -2.54430448	    -11.78011050	     18.02011247	     31.07718296	     45.61903079	      0.00000000	      0.00000000
     34.16064286	     -5.75167184	     -4.48293457	      3.96292527	      1.06433907	      0.92656632	      0.47761760	     -0.90629212	     -3.18220039	    -14.49978864	     19.08293568	     19.08293568	     14.30018029	      5.69498798	     -7.13010406	     23.84756132	     -6.24143641	     -0.94870944	     24.42051035	     24.42051035	      8.63446427	    -12.13815985	      3.22157984	     -7.18763112	      4.23922528	      3.92423924	     37.59625300	    -15.64205083	     -5.71730317	     63.36720117	     45.76775312	      0.00000000	      0.00000000	     -0.32202967	    -11.74783547	     17.45814719	     30.70043070	     45.72019594	      0.00000000	      0.00000000
     34.18142857	     -5.85802546	     -4.56483266	      3.50677384	      1.06489597	      0.92662034	      0.47220609	     -0.80176714	     -3.63773734	    -14.26892076	     19.51390445	     19.51390445	     13.89250774	      5.97366754	     -7.55006386	     23.69083047	     -6.07277586	     -1.20522540	     24.75581190	     24.75581190	      9.14254224	    -12.47076388	      3.36526994	     -7.21168512	      4.40976997	      3.84458525	     35.06455112	    -15.51622821	     -5.61733994	     61.32265751	     45.81653091	      0.00000000	      0.00000000	      1.83855192	    -11.84841826	     17.16285621	     30.98170350	     45.78696153	      0.00000000	      0.00000000
     34.20221429	     -5.89793365	     -4.64235880	      3.05248132	      1.06527395	      0.92657458	      0.46684921	     -0.60572642	     -4.11933239	    -13.96490058	     20.17519476	     20.17519476	     13.09953387	      5.97134995	     -9.15087521	     23.54743788	     -5.89374228	     -1.39274280	     25.25256487	     25.25256487	     10.00953696	    -12.76612019	      4.30519020	     -7.28770332	      4.59389176	      3.60469515	     32.95339507	    -15.04766260	     -5.80346139	     57.89806544	     45.90893840	      0.00000000	      0.00000000	      4.39104435	    -11.74695866	     16.93471819	     30.12615547	     45.82293349	      0.00000000	      0.00000000
